@@ -0,0 +1,10 @@
<?xml version="1.0" encoding="utf-8"?>
<!-- Generator: Adobe Illustrator 18.0.0, SVG Export Plug-In . SVG Version: 6.00 Build 0)  -->
<!DOCTYPE svg PUBLIC "-//W3C//DTD SVG 1.1//EN" "http://www.w3.org/Graphics/SVG/1.1/DTD/svg11.dtd">
<svg version="1.1" id="Layer_1" xmlns="http://www.w3.org/2000/svg" xmlns:xlink="http://www.w3.org/1999/xlink" x="0px" y="0px"
	 viewBox="0 0 26 25" enable-background="new 0 0 26 25" xml:space="preserve">
<path opacity="0.5" d="M23.3,18.6c-2.2-1.7-2.4-5-2.4-6.6c0-0.3,0-0.6,0-1c0-4.2-2.6-7.7-6-8.7c0-0.1,0-0.2,0-0.3c0-1.1-0.9-2-2-2
	s-2,0.9-2,2c0,0.1,0,0.2,0,0.3c-3.5,1-6,4.5-6,8.7c0,0.3,0,0.7,0,1c0,1.6-0.2,5-2.4,6.6C1,19.3,0,20.1,0,21c0,2.2,5.8,4,13,4
	s13-1.8,13-4C26,20.1,25,19.3,23.3,18.6z M13,23c-5.5,0-10-0.7-10-1.5c0-0.7,3.4-1.3,8-1.5c0,1.1,0.9,2,2,2s2-0.9,2-2
	c4.6,0.1,8,0.7,8,1.5S18.5,23,13,23z"/>
</svg>
